<svg width="13" height="9" viewBox="0 0 13 9" fill="none" xmlns="http://www.w3.org/2000/svg">
<path d="M12.2142 7.15755L11.8142 7.42008C11.1891 7.83264 9.35133 8.9328 7.25103 8.9328C6.62594 8.9328 5.97585 8.83278 5.32576 8.59525C4.2506 8.2077 3.5005 7.5326 3.17545 7.25756C1.62523 5.90737 1.02515 4.25713 0.625089 3.16948C0.375053 2.50689 0.175025 1.81929 0.0500071 1.13169L0 0.894157L0.225032 0.806644C1.36269 0.331577 4.35062 -0.63106 7.38855 0.606616C7.97613 0.84415 9.53886 1.49424 10.789 3.13197C11.2016 3.68205 11.5391 4.28214 11.7892 4.91973L11.2516 5.13226C11.0141 4.53217 10.7015 3.9821 10.3265 3.48202C9.1763 1.96931 7.7136 1.36922 7.16352 1.14419C4.50064 0.056538 1.87527 0.781641 0.662594 1.24421C0.787612 1.83179 0.962637 2.40687 1.16267 2.96945C1.55022 4.0071 2.1253 5.55732 3.5505 6.8325C3.85055 7.09504 4.53814 7.70762 5.51328 8.07018C7.7386 8.88279 10.0014 7.83264 11.0766 7.20755L8.68873 5.91987L6.55093 6.8575L6.3134 6.31993L8.03864 5.56982L5.90084 4.41966L4.00057 5.23227L3.77554 4.6947L5.25075 4.06961L4.05058 3.43202L4.32561 2.91944L12.2142 7.15755Z" fill="#FFF"/>
</svg>
