<svg width="20" height="20" viewBox="0 0 20 20" fill="none" xmlns="http://www.w3.org/2000/svg">
<circle cx="10" cy="10" r="10" fill="#225D38"/>
<path d="M10 10.225C9.62112 10.225 9.25776 10.0801 8.98985 9.82227C8.72194 9.56441 8.57143 9.21467 8.57143 8.85C8.57143 8.48533 8.72194 8.13559 8.98985 7.87773C9.25776 7.61987 9.62112 7.475 10 7.475C10.3789 7.475 10.7422 7.61987 11.0102 7.87773C11.2781 8.13559 11.4286 8.48533 11.4286 8.85C11.4286 9.03057 11.3916 9.20937 11.3198 9.37619C11.248 9.54301 11.1428 9.69459 11.0102 9.82227C10.8775 9.94995 10.72 10.0512 10.5467 10.1203C10.3734 10.1894 10.1876 10.225 10 10.225ZM10 5C8.93913 5 7.92172 5.40562 7.17157 6.12764C6.42143 6.84965 6 7.82892 6 8.85C6 11.7375 10 16 10 16C10 16 14 11.7375 14 8.85C14 7.82892 13.5786 6.84965 12.8284 6.12764C12.0783 5.40562 11.0609 5 10 5Z" fill="white"/>
</svg>
