<svg width="280" height="100" viewBox="0 0 280 100" fill="none" xmlns="http://www.w3.org/2000/svg">
<path d="M273.558 23.0068C270.694 23.0068 268.387 25.3074 268.387 28.1634C268.387 31.0195 270.694 33.3201 273.558 33.3201C276.422 33.3201 278.729 31.0195 278.729 28.1634C278.69 25.3074 276.382 23.0068 273.558 23.0068ZM273.558 21.6978C277.138 21.6978 280.042 24.5934 280.042 28.1634C280.042 31.7335 277.138 34.6291 273.558 34.6291C269.978 34.6291 267.074 31.7335 267.074 28.1634C267.074 24.5538 269.978 21.6978 273.558 21.6978Z" fill="white"/>
<path d="M272.442 27.6083C272.76 27.6083 273.038 27.6083 273.317 27.6083C273.436 27.6083 273.516 27.5686 273.635 27.5686C273.913 27.4893 274.073 27.3306 274.152 27.0926C274.192 26.8943 274.192 26.6563 274.152 26.458C274.073 26.22 273.953 26.0613 273.715 25.982C273.595 25.9423 273.516 25.9423 273.396 25.9026C273.078 25.9026 272.76 25.9026 272.442 25.9026V27.6083ZM270.691 24.6333H270.731C271.646 24.6333 272.561 24.6333 273.476 24.6333C273.913 24.6333 274.351 24.673 274.789 24.8316C275.067 24.911 275.306 25.0696 275.505 25.268C275.703 25.506 275.823 25.7836 275.863 26.101C275.902 26.458 275.902 26.7753 275.823 27.1323C275.703 27.5686 275.385 27.886 274.987 28.0843C274.868 28.124 274.749 28.2033 274.629 28.243C274.789 28.2826 274.908 28.362 275.067 28.4413C275.306 28.6 275.505 28.838 275.624 29.1157C275.823 29.4727 275.982 29.8297 276.181 30.1867C276.38 30.5833 276.539 30.9403 276.738 31.337C276.738 31.337 276.738 31.3767 276.777 31.4163C276.738 31.4163 276.738 31.4163 276.738 31.4163C276.141 31.4163 275.584 31.4163 274.987 31.4163C274.948 31.4163 274.908 31.4163 274.908 31.3767C274.629 30.8213 274.351 30.2263 274.073 29.671C273.993 29.552 273.913 29.433 273.834 29.314C273.675 29.076 273.436 28.957 273.158 28.9173C272.919 28.8777 272.68 28.9173 272.442 28.8777V31.4163H270.691V24.6333Z" fill="white"/>
<path d="M74.386 72.7483C74.7042 91.7091 65.595 99.3251 43.2793 98.8094V86.0367C44.7511 86.1557 45.308 86.1557 46.2229 86.1557C50.3599 86.1557 53.8206 85.2037 55.9686 83.5377C58.9122 81.118 59.8669 77.8257 59.8669 69.2973V39.1902H43.2793V27.4092H74.386V72.7483Z" fill="white"/>
<path d="M163.648 78.0642V79.0162C163.648 83.7762 167.785 87.2272 173.275 87.2272C178.565 87.2272 182.583 83.9746 182.583 79.7302C182.583 77.5089 181.509 75.5255 179.719 74.1372C177.929 72.7489 176.656 72.2332 171.167 70.2498C155.732 64.7758 150.243 58.9845 150.243 48.1951C150.243 35.4224 159.671 26.894 173.513 26.894C187.277 26.894 196.147 34.9067 197.301 48.3934H182.702C182.185 42.4831 179.202 39.6271 173.513 39.6271C168.342 39.6271 164.842 42.5624 164.842 47.0051C164.842 49.8611 166.314 52.0825 169.178 53.6295C171.087 54.7005 172.241 55.2161 177.412 57.1201C185.129 59.9761 189.027 61.9595 192.09 64.9345C195.789 68.4252 197.699 73.1455 197.699 78.5402C197.699 91.3923 187.953 99.9603 173.394 99.9603C158.597 99.9603 149.487 91.5112 149.607 78.0245H163.648V78.0642Z" fill="white"/>
<path d="M222.124 68.4253C222.124 74.9704 222.959 78.5404 225.306 81.2774C227.414 83.8954 231.233 85.6011 235.131 85.6011C239.268 85.6011 243.286 83.6971 245.394 80.7617C247.503 77.9057 248.139 74.8514 248.139 68.3063V27.1719H262.738V67.87C262.738 78.1834 260.51 85.3631 255.776 90.6388C251.003 95.9144 243.604 98.8498 235.37 98.8498C226.818 98.8498 218.981 95.6764 214.009 90.0834C209.474 85.0061 207.645 78.699 207.645 67.8303V27.1719H222.124V68.4253Z" fill="white"/>
<path d="M98.6903 59.5004V57.5964C98.6903 51.0514 99.5256 47.4814 101.873 44.7444C103.981 42.1264 107.8 40.4207 111.698 40.4207C115.835 40.4207 119.852 42.3247 121.961 45.26C124.069 48.1161 124.705 51.1704 124.705 57.7154V59.5004H98.6903ZM132.303 35.3433C127.53 30.0677 120.131 27.1323 111.897 27.1323C103.344 27.1323 95.508 30.3057 90.5357 35.8987C86.001 40.976 84.2109 47.2831 84.2109 58.1518V98.8499H98.6903V70.4881H124.705V98.8499H139.304V58.1121C139.264 47.7591 137.076 40.619 132.303 35.3433Z" fill="white"/>
<path d="M38.8635 22.7292L37.5906 23.5622C35.6017 24.8712 29.7543 28.3619 23.0715 28.3619C21.0826 28.3619 19.0141 28.0445 16.9456 27.2909C13.5247 26.0612 11.138 23.9192 10.1037 23.0465C5.17119 18.7625 3.26183 13.5265 1.98892 10.0755C1.19335 7.97312 0.556898 5.79145 0.159114 3.60978L0 2.85611L0.716011 2.57844C4.33585 1.0711 13.8429 -1.98324 23.509 1.94377C25.3786 2.69744 30.3509 4.76011 34.3288 9.95646C35.6415 11.7018 36.7155 13.6058 37.511 15.6288L35.8006 16.3032C35.0448 14.3991 34.0503 12.6538 32.857 11.0671C29.1974 6.26745 24.5433 4.36345 22.793 3.64944C14.3202 0.198432 5.96676 2.49911 2.10826 3.96678C2.50604 5.83112 3.06294 7.65579 3.69939 9.44079C4.93252 12.7331 6.76233 17.6518 11.2971 21.6978C12.2518 22.5308 14.4396 24.4745 17.5423 25.6248C24.6228 28.2032 31.8227 24.8712 35.2437 22.8878L27.646 18.8022L20.8439 21.7772L20.0881 20.0715L25.5775 17.6915L18.7754 14.0421L12.7291 16.6205L12.0131 14.9148L16.7069 12.9315L12.8882 10.9085L13.7633 9.28213L38.8635 22.7292Z" fill="white"/>
</svg>
