<svg width="89" height="32" viewBox="0 0 89 32" fill="none" xmlns="http://www.w3.org/2000/svg">
<path d="M85.9753 7.24508C85.0752 7.24508 84.3501 7.97018 84.3501 8.87031C84.3501 9.77044 85.0752 10.4955 85.9753 10.4955C86.8754 10.4955 87.6005 9.77044 87.6005 8.87031C87.588 7.97018 86.8629 7.24508 85.9753 7.24508ZM85.9753 6.83252C87.1004 6.83252 88.0131 7.74515 88.0131 8.87031C88.0131 9.99547 87.1004 10.9081 85.9753 10.9081C84.8501 10.9081 83.9375 9.99547 83.9375 8.87031C83.9375 7.73265 84.8501 6.83252 85.9753 6.83252Z" fill="#225D38"/>
<path d="M85.6243 8.69545C85.7243 8.69545 85.8118 8.69545 85.8993 8.69545C85.9368 8.69545 85.9618 8.68294 85.9994 8.68294C86.0869 8.65794 86.1369 8.60793 86.1619 8.53292C86.1744 8.47041 86.1744 8.3954 86.1619 8.33289C86.1369 8.25788 86.0994 8.20788 86.0244 8.18287C85.9868 8.17037 85.9618 8.17037 85.9243 8.15787C85.8243 8.15787 85.7243 8.15787 85.6243 8.15787V8.69545ZM85.0742 7.75781H85.0867C85.3743 7.75781 85.6618 7.75781 85.9493 7.75781C86.0869 7.75781 86.2244 7.77031 86.3619 7.82032C86.4494 7.84532 86.5244 7.89533 86.5869 7.95784C86.6494 8.03285 86.6869 8.12036 86.6994 8.22038C86.712 8.33289 86.712 8.43291 86.687 8.54542C86.6494 8.68294 86.5494 8.78296 86.4244 8.84547C86.3869 8.85797 86.3494 8.88297 86.3119 8.89547C86.3619 8.90798 86.3994 8.93298 86.4494 8.95798C86.5244 9.00799 86.5869 9.083 86.6244 9.17051C86.687 9.28303 86.737 9.39555 86.7995 9.50806C86.862 9.63308 86.912 9.7456 86.9745 9.87061C86.9745 9.87061 86.9745 9.88311 86.987 9.89562C86.9745 9.89562 86.9745 9.89562 86.9745 9.89562C86.787 9.89562 86.6119 9.89562 86.4244 9.89562C86.4119 9.89562 86.3994 9.89562 86.3994 9.88311C86.3119 9.70809 86.2244 9.52056 86.1369 9.34554C86.1119 9.30803 86.0869 9.27053 86.0619 9.23302C86.0119 9.15801 85.9368 9.12051 85.8493 9.108C85.7743 9.0955 85.6993 9.108 85.6243 9.0955V9.89562H85.0742V7.75781Z" fill="#225D38"/>
<path d="M23.3779 22.9223C23.478 28.8982 20.6151 31.2985 13.6016 31.136V27.1104C14.0641 27.1479 14.2392 27.1479 14.5267 27.1479C15.8269 27.1479 16.9145 26.8479 17.5896 26.3228C18.5148 25.5602 18.8148 24.5226 18.8148 21.8347V12.3458H13.6016V8.63281H23.3779V22.9223Z" fill="#225D38"/>
<path d="M51.433 24.5975V24.8975C51.433 26.3978 52.7332 27.4854 54.4585 27.4854C56.1212 27.4854 57.3839 26.4603 57.3839 25.1226C57.3839 24.4225 57.0463 23.7974 56.4837 23.3598C55.9212 22.9223 55.5211 22.7597 53.7959 22.1347C48.9452 20.4094 47.2199 18.5842 47.2199 15.1837C47.2199 11.1581 50.1828 8.47021 54.5335 8.47021C58.8591 8.47021 61.647 10.9956 62.0095 15.2462H57.4214C57.2588 13.3834 56.3212 12.4833 54.5335 12.4833C52.9082 12.4833 51.8081 13.4084 51.8081 14.8086C51.8081 15.7087 52.2706 16.4088 53.1708 16.8964C53.7709 17.234 54.1334 17.3965 55.7586 17.9966C58.184 18.8967 59.4092 19.5218 60.3718 20.4594C61.5345 21.5596 62.1345 23.0473 62.1345 24.7475C62.1345 28.7981 59.0716 31.4985 54.496 31.4985C49.8453 31.4985 46.9824 28.8356 47.0199 24.585H51.433V24.5975Z" fill="#225D38"/>
<path d="M69.8104 21.5595C69.8104 23.6223 70.073 24.7474 70.8106 25.61C71.4732 26.4352 72.6733 26.9727 73.8985 26.9727C75.1987 26.9727 76.4614 26.3726 77.124 25.4475C77.7865 24.5474 77.9866 23.5848 77.9866 21.522V8.55762H82.5747V21.3844C82.5747 24.6349 81.8746 26.8977 80.3869 28.5605C78.8867 30.2232 76.5614 31.1483 73.9735 31.1483C71.2856 31.1483 68.8228 30.1482 67.26 28.3854C65.8348 26.7852 65.2598 24.7974 65.2598 21.3719V8.55762H69.8104V21.5595Z" fill="#225D38"/>
<path d="M31.0174 18.7469V18.1468C31.0174 16.084 31.28 14.9588 32.0176 14.0962C32.6802 13.2711 33.8803 12.7335 35.1055 12.7335C36.4057 12.7335 37.6684 13.3336 38.331 14.2587C38.9936 15.1588 39.1936 16.1215 39.1936 18.1843V18.7469H31.0174ZM41.5814 11.1333C40.0812 9.47054 37.7559 8.54541 35.168 8.54541C32.4801 8.54541 30.0173 9.54555 28.4546 11.3083C27.0294 12.9085 26.4668 14.8963 26.4668 18.3218V31.1486H31.0174V22.2099H39.1936V31.1486H43.7818V18.3093C43.7693 15.0463 43.0817 12.796 41.5814 11.1333Z" fill="#225D38"/>
<path d="M12.2142 7.15755L11.8142 7.42008C11.1891 7.83264 9.35133 8.9328 7.25103 8.9328C6.62594 8.9328 5.97585 8.83278 5.32576 8.59525C4.2506 8.2077 3.5005 7.5326 3.17545 7.25756C1.62523 5.90737 1.02515 4.25713 0.625089 3.16948C0.375053 2.50689 0.175025 1.81929 0.0500071 1.13169L0 0.894157L0.225032 0.806644C1.36269 0.331577 4.35062 -0.63106 7.38855 0.606616C7.97613 0.84415 9.53886 1.49424 10.789 3.13197C11.2016 3.68205 11.5391 4.28214 11.7892 4.91973L11.2516 5.13226C11.0141 4.53217 10.7015 3.9821 10.3265 3.48202C9.1763 1.96931 7.7136 1.36922 7.16352 1.14419C4.50064 0.056538 1.87527 0.781641 0.662594 1.24421C0.787612 1.83179 0.962637 2.40687 1.16267 2.96945C1.55022 4.0071 2.1253 5.55732 3.5505 6.8325C3.85055 7.09504 4.53814 7.70762 5.51328 8.07018C7.7386 8.88279 10.0014 7.83264 11.0766 7.20755L8.68873 5.91987L6.55093 6.8575L6.3134 6.31993L8.03864 5.56982L5.90084 4.41966L4.00057 5.23227L3.77554 4.6947L5.25075 4.06961L4.05058 3.43202L4.32561 2.91944L12.2142 7.15755Z" fill="#225D38"/>
</svg>
