<svg width="53" height="83" viewBox="0 0 53 83" fill="none" xmlns="http://www.w3.org/2000/svg">
<path d="M53 31.2129L51.2596 32.3813C48.5665 34.1978 40.5921 38.9767 31.4399 38.9994C28.7243 39.0069 25.8961 38.5923 23.0754 37.5521C18.4018 35.8335 15.1386 32.9315 13.7432 31.6953C7.07417 25.7556 4.43355 18.5948 2.69314 13.8536C1.62788 10.9591 0.787686 7.95915 0.195046 4.929L0 3.91141L0.952725 3.51945C5.91139 1.44658 18.8669 -2.77452 32.0551 2.67523C34.6057 3.7305 41.3948 6.53452 46.7885 13.6576C48.589 16.032 50.0593 18.6627 51.1546 21.4742L48.814 22.4014C47.7938 19.8084 46.4435 17.3813 44.7856 15.1953C39.7969 8.61493 33.4804 5.99935 31.0948 5.01945C19.5421 0.248091 8.10941 3.44407 2.88068 5.47171C3.42081 8.01945 4.15598 10.537 5.05619 12.9717C6.71408 17.4717 9.21967 24.2782 15.4161 29.7958C16.6989 30.934 19.7071 33.6174 23.9381 35.1702C33.5854 38.7205 43.4277 34.1451 48.0488 31.4089L37.6889 25.8084L28.3867 29.8712L27.3815 27.5571L34.8607 24.2858L25.596 19.2732L17.3516 22.8385L16.3614 20.5094L22.7679 17.7431L17.5841 14.939L18.7769 12.7079L53 31.2129Z" fill="#225D38" fill-opacity="0.02"/>
<path d="M0 74.2188L1.74041 75.3871C4.43355 77.2037 12.4079 81.9826 21.5601 82.0052C24.2757 82.0128 27.1039 81.5982 29.9246 80.558C34.5982 78.8394 37.8614 75.9374 39.2568 74.7012C45.9258 68.7615 48.5665 61.6007 50.3069 56.8595C51.3721 53.965 52.2123 50.965 52.805 47.9349L53 46.9173L52.0473 46.5253C47.0886 44.4524 34.1331 40.2313 20.9449 45.6811C18.3943 46.7364 11.6052 49.5404 6.21146 56.6635C4.41104 59.0379 2.94069 61.6685 1.84544 64.4801L4.18599 65.4072C5.20623 62.8143 6.55655 60.3871 8.21444 58.2012C13.2031 51.6208 19.5196 49.0052 21.9052 48.0253C33.4579 43.254 44.8906 46.4499 50.1193 48.4776C49.5792 51.0253 48.844 53.5429 47.9438 55.9776C46.2859 60.4776 43.7803 67.2841 37.5839 72.8017C36.3011 73.9399 33.2929 76.6233 29.0619 78.1761C19.4146 81.7263 9.57226 77.1509 4.95117 74.4148L15.3111 68.8143L24.6133 72.8771L25.6185 70.563L18.1393 67.2916L27.404 62.2791L35.6484 65.8444L36.6386 63.5153L30.2321 60.7489L35.4159 57.9449L34.2231 55.7138L0 74.2188Z" fill="#225D38" fill-opacity="0.02"/>
</svg>
