<svg width="20" height="20" viewBox="0 0 20 20" fill="none" xmlns="http://www.w3.org/2000/svg">
<circle cx="10" cy="10" r="10" fill="#225D38"/>
<path d="M7.01111 9.32778C7.81111 10.9 9.1 12.1889 10.6722 12.9889L11.8944 11.7667C12.05 11.6111 12.2667 11.5667 12.4611 11.6278C13.0833 11.8333 13.75 11.9444 14.4444 11.9444C14.5918 11.9444 14.7331 12.003 14.8373 12.1072C14.9415 12.2114 15 12.3527 15 12.5V14.4444C15 14.5918 14.9415 14.7331 14.8373 14.8373C14.7331 14.9415 14.5918 15 14.4444 15C11.9396 15 9.53739 14.005 7.76621 12.2338C5.99504 10.4626 5 8.06038 5 5.55556C5 5.40821 5.05853 5.26691 5.16272 5.16272C5.26691 5.05853 5.40821 5 5.55556 5H7.5C7.64734 5 7.78865 5.05853 7.89284 5.16272C7.99702 5.26691 8.05556 5.40821 8.05556 5.55556C8.05556 6.25 8.16667 6.91667 8.37222 7.53889C8.43333 7.73333 8.38889 7.95 8.23333 8.10556L7.01111 9.32778Z" fill="white"/>
</svg>
